<svg xmlns="http://www.w3.org/2000/svg" shape-rendering="geometricPrecision" text-rendering="geometricPrecision" image-rendering="optimizeQuality" fill-rule="evenodd" clip-rule="evenodd" viewBox="0 0 396 511.78"><path fill-rule="nonzero" d="M23.6 359.9C-.16 319.8-5.41 273.86 5.3 232.03c10.71-41.86 37.4-79.63 77.51-103.39 40.1-23.76 86.04-29.01 127.87-18.3 1.75.44 3.49.92 5.21 1.42l47.85-67.33a27.786 27.786 0 0 1-5.45-16.56c0-7.67 3.13-14.64 8.17-19.69 5.03-5.06 12-8.18 19.69-8.18 7.67 0 14.63 3.13 19.68 8.16l.03.03c5.04 5.07 8.16 12.02 8.16 19.68 0 7.69-3.12 14.66-8.16 19.7l-.43.39c-5.01 4.81-11.81 7.78-19.28 7.78-4.44 0-8.65-1.05-12.38-2.9l-44.94 63.24a169.581 169.581 0 0 1 35.73 18.71l.02.02.13.09c8.3 5.72 16.14 12.22 23.39 19.47l.12.11.11.11.03.04c9.71 9.74 18.38 20.85 25.71 33.22 1.14 1.92 2.23 3.85 3.28 5.8l28.37-39.92a27.763 27.763 0 0 1-5.45-16.56c0-7.67 3.12-14.64 8.17-19.69 5.03-5.05 12-8.17 19.69-8.17 7.67 0 14.63 3.12 19.68 8.16l.03.03c5.04 5.06 8.16 12.02 8.16 19.67 0 7.7-3.12 14.67-8.16 19.71l-.43.39c-5.02 4.81-11.81 7.77-19.28 7.77-4.44 0-8.65-1.05-12.38-2.9l-31.9 44.88c15.23 35.17 17.56 73.4 8.52 108.71-6.97 27.26-20.73 52.79-40.56 73.84 3.98 1.46 7.78 3.9 11.17 6.96 5.73 5.15 10.49 12.27 12.92 19.28.88 2.54 1.47 5.08 1.71 7.52 3.32 33.59-37.59 39.18-72.04 43.89-10.48 1.42-20.29 2.77-27.44 4.77-15.37 4.31-30.27 9.81-42.7 16.77-10.3 5.76-18.85 12.48-24.42 20.28-2.09 2.93-6.17 3.62-9.1 1.53-2.93-2.08-3.62-6.16-1.54-9.09 6.81-9.52 16.82-17.49 28.67-24.12 13.41-7.5 29.29-13.38 45.56-17.94 7.95-2.23 18.24-3.64 29.23-5.14 28.74-3.92 62.88-8.59 60.8-29.67-.14-1.45-.5-3-1.04-4.55-1.72-4.96-5.16-10.06-9.35-13.82-3.7-3.33-7.8-5.47-11.35-5.12-.54.05-1.08.17-1.58.34l-3.14 1.05a168.308 168.308 0 0 1-23.31 16.6c-40.1 23.76-86.04 29.01-127.88 18.3C85.13 426.7 47.36 400.02 23.6 359.9zm354.99-233.21c-2.66-2.65-6.36-4.3-10.46-4.3-4.08 0-7.78 1.66-10.45 4.33a14.652 14.652 0 0 0-4.33 10.45c0 4.08 1.66 7.79 4.33 10.46 2.67 2.67 6.37 4.33 10.45 4.33 3.96 0 7.54-1.54 10.17-4.03l.29-.3a14.77 14.77 0 0 0 4.33-10.46c0-4.1-1.65-7.79-4.31-10.45l-.02-.03zM202.53 409.3c-.95-.1-1.83-.39-2.6-.84a169.586 169.586 0 0 1-71.29-29.4c-17.88 1.18-35.89-.07-53.49-3.69a200.686 200.686 0 0 1-31.89-9.35c21.9 29.92 52.96 50.02 86.94 58.72 37.53 9.61 78.61 5.31 114.85-15.05-9.02.98-18.09 1.22-27.11.73-5.15-.2-10.29-.58-15.41-1.12zm16.22-11.92c7.17.25 14.4.1 21.65-.53 10.42-.89 20.85-2.79 31.24-5.95 4.67-4.1 9.06-8.43 13.14-12.99-26 2.27-52.28-1.75-76.53-11.63-28.33-11.54-53.89-31.1-72.99-58.01-21.37-30.1-31.08-65.27-30.27-99.86v-.11c.73-30.14 9.45-59.86 25.41-85.38-3.29.84-6.57 1.79-9.83 2.85-28.68 25.8-45.62 60.78-49.6 97.48-3.99 36.77 5.03 75.27 28.27 108.01 19.92 28.06 47.29 47.66 77.38 57.94 13.63 4.66 27.82 7.41 42.13 8.18zm77.86-379.99a14.741 14.741 0 0 0-10.46-4.31c-4.07 0-7.78 1.66-10.45 4.33a14.675 14.675 0 0 0-4.33 10.46c0 4.08 1.66 7.78 4.33 10.45 2.67 2.67 6.38 4.33 10.45 4.33 3.96 0 7.54-1.53 10.17-4.02l.29-.31c2.67-2.67 4.33-6.37 4.33-10.45 0-4.1-1.65-7.8-4.3-10.46l-.03-.02zM174.35 192.75c-.59.82-1.33 1.47-2.16 1.92.63 5.74 1.59 11.46 2.88 17.13a181.776 181.776 0 0 0 30.45-36.3c9.19-14.42 16.27-30 21.13-46.23-1.88-.75-3.77-1.47-5.67-2.14l-46.63 65.62zm-3.09-18.19 36.57-51.46-.37-.09c-8.15-2.09-16.48-3.52-24.88-4.27-7.12 17.69-10.97 36.67-11.32 55.82zm137.25 168.25a165.991 165.991 0 0 1-61.52-18.27c-.84-.25-1.64-.67-2.34-1.26l-.52-.28c-21.36-11.75-40.52-28.44-55.62-49.72-17.07-24.03-26.7-51.31-29.47-78.94-2.6-25.89.81-52.1 9.76-76.22-6.73-.01-13.48.43-20.21 1.31-19.26 25.66-29.81 57.18-30.56 89.25v.04c-.75 31.87 8.19 64.28 27.86 91.99 17.6 24.79 41.16 42.82 67.27 53.46 26.34 10.73 55.27 13.96 83.27 9.06 4.56-6.52 8.6-13.35 12.08-20.42zM178.95 225.77c3.08 9.34 7.1 18.46 12.08 27.22a181.766 181.766 0 0 0 40.18-47.68c11.23-19.22 18.81-40.26 22.57-62-4.89-3.18-9.94-6.07-15.13-8.66a197.438 197.438 0 0 1-22.14 47.85 194.922 194.922 0 0 1-37.56 43.27zm19.08 38.37 1.11 1.58c4.86 6.84 10.17 13.17 15.86 18.97a182.118 182.118 0 0 0 42.07-53.92c11.05-21.54 17.73-45.06 19.8-69.12a154.47 154.47 0 0 0-11.37-9.93c-4.32 21.07-12.04 41.44-22.99 60.19-11.36 19.45-26.24 37.2-44.48 52.23zm26.54 29.49c7.29 6.25 15.06 11.74 23.21 16.44 15.45-16.09 27.53-34.6 36.08-54.5 9.16-21.32 14.25-44.21 15.05-67.35-3.22-4.9-6.68-9.56-10.35-13.98a199.51 199.51 0 0 1-19.88 62.45c-10.85 21.14-25.61 40.52-44.11 56.94zm35.25 22.68c17.16 7.96 35.58 12.64 54.23 13.85 2.23-5.77 4.12-11.67 5.65-17.65 8.65-33.79 6.03-70.47-9.44-103.89-2.42 17.93-7.24 35.48-14.39 52.11a195.446 195.446 0 0 1-36.05 55.58zm-228.86 30a188.701 188.701 0 0 0 46.81 16.29c11.57 2.38 23.38 3.66 35.24 3.81-7.61-6.94-14.7-14.66-21.14-23.14a200.362 200.362 0 0 1-68.12-12.72c2.09 5.33 4.49 10.59 7.21 15.76zM18.39 314.3c11.44 5.03 23.35 8.9 35.54 11.57 9.49 2.08 19.11 3.43 28.74 4.02-4.2-6.77-7.88-13.73-11.03-20.83-10.76-.07-21.46-1.01-32-2.79-8.16-1.38-16.28-3.28-24.28-5.68.8 4.59 1.81 9.17 3.03 13.71zm-4.82-27.95c9.2 3.07 18.64 5.42 28.22 7.04 8.17 1.38 16.41 2.22 24.65 2.52-2.63-7.55-4.71-15.22-6.23-22.95-8.25.38-16.5.26-24.7-.38-7.5-.58-14.97-1.59-22.37-3.01-.16 5.58-.02 11.18.43 16.78zm44.6-26.38c-1.5-12.71-1.54-25.51-.18-38.11 3.22-29.7 14.29-58.38 32.64-82.67l-1.18.69c-36.99 21.92-61.6 56.76-71.48 95.37a155.04 155.04 0 0 0-3.89 21.18c7.4 1.49 14.88 2.53 22.39 3.12 7.22.56 14.46.7 21.7.42z"/></svg>